<?xml version="1.0" encoding="utf-8"?>
<!-- Generator: Adobe Illustrator 24.3.0, SVG Export Plug-In . SVG Version: 6.00 Build 0)  -->
<svg version="1.1" id="Capa_1" xmlns="http://www.w3.org/2000/svg" xmlns:xlink="http://www.w3.org/1999/xlink" x="0px" y="0px"
	 viewBox="0 0 446 565" style="enable-background:new 0 0 446 565;" xml:space="preserve">
<style type="text/css">
	.st0{fill:#71A3DE;}
	.st1{fill:#FFFFFF;}
	.st2{fill:#D94D4D;}
</style>
<g>
	<path class="st0" d="M171.9,245.2c0.3-0.3,0.3-2.1-0.1-3.9c-0.7-3.6-3.9-7.8-7.2-9.6s-10.4-3.1-10.4-2c0,3.8,2.6,10.2,5.1,12.3
		C162,244.2,170.6,246.3,171.9,245.2z"/>
	<path class="st1" d="M313.7,367.2l-0.7,4.3l5.9-3.3c17.7-10.1,33.3-23.3,43.7-37.2c5.8-7.6,14.6-24.1,14.6-27.2
		c0-3.9-5.3-20-9.2-27.7c-7.2-14.5-15.5-24.1-27.9-32.2c-6.4-4.2-15.6-8.4-18.2-8.4c-0.7,0-2,1.8-3,3.9
		c-5.8,12.6-18.6,21.7-35.9,25.5c-4.9,1.1-9.7,15.4-11.9,35.7l-1.2,11.4l-4.5-8.8c-5.7-11.5-13.9-20.4-22.4-24.3
		c-5.6-2.6-7.4-2.9-15.8-2.9c-8.2,0-10.3,0.4-15.3,2.7c-3.2,1.5-7.3,4-9.2,5.5c-5.8,4.9-14.8,18.1-17.1,25.3
		c-1.1,3.5-1.1,3.4-1.8-3.5c-1.3-12.6-3.7-23.9-6.9-32.4l-3.2-8.4l-6.1-1.3c-13.2-2.6-25-11-31.4-22.3c-1.9-3.3-4.2-6-5-6
		c-5.3-0.1-22.5,11.1-31.7,20.6c-9.1,9.2-16.8,23.9-20.3,38.5l-2.3,9.6l2.2,5.3c8.2,19.3,23.5,36.9,44.1,50.8
		c11.4,7.7,18,11.6,18,10.6c0-0.2-1.1-5.8-2.5-12.2c-3.1-14.8-8.1-30.3-13.3-41.3c-2.2-4.7-3.9-8.7-3.6-8.9c0.5-0.5,8.6,6,14.2,11.3
		s11.7,14.8,14.3,22c1.1,3.2,2.9,11.5,3.9,18.6c3.5,22.8,6.8,29.8,19.3,41.7c16.9,16,36.4,25.3,53.3,25.3
		c17.9,0,39.6-10.4,55.7-26.6c10.1-10.1,14.8-20,16.7-34.9c3.1-24,7.4-34,19.4-46c4.5-4.4,9.6-8.8,11.4-9.9l3.4-1.8l-1.5,2.8
		C322.9,328.5,316.5,348.3,313.7,367.2z M265.8,387.6c-1.3,6.4-2.7,8.4-7.4,10.6c-7.5,3.4-18,3-25.8-0.9l-6-3l-5.6,2.9
		c-7.3,3.8-16.2,4.5-23.3,2c-5.6-2-8.4-5.2-9.3-10.6l-0.6-3.7h6.4c9.1,0,13.1-1.4,17.3-6c3.1-3.5,4-5.6,3.5-8.8
		c-0.1-0.4-2-1.3-4.4-1.9c-5.5-1.7-12.7-8.1-15.6-14c-1.9-4.1-2.3-6.4-2.3-15.3c0-8.8,0.3-11.2,2.1-14.6
		c3.3-6.2,12.3-11.6,22.3-13.5c5.9-1,19.2-0.2,25.7,1.7c6.6,1.9,13.7,7.4,16.6,12.7c1.8,3.4,2.2,5.8,2.2,12.7
		c-0.1,14.7-4.5,23.1-14.6,28.2c-3,1.5-6.2,2.9-7.2,3.2c-2.1,0.7-1.7,3.1,1.6,8.5c2.9,4.8,8.5,7.1,17.6,7.1h7.4L265.8,387.6z"/>
	<path class="st0" d="M293.9,243c2.9-1.9,5.3-7.2,5.3-11.5c0-3.7-1.1-3.8-7.8-0.4c-5.7,2.8-8.6,6.2-9.7,11.3l-0.7,3.4l5.2-0.6
		C289.1,244.8,292.6,243.8,293.9,243z"/>
	<path class="st1" d="M249.9,332.4c0.3-0.3-0.3-2.2-1.3-4.2c-1.4-2.6-3.5-4.3-7-5.9c-8.9-4.1-22.9-3.9-31.4,0.4
		c-3.2,1.6-8.1,8.5-6.9,9.7c0.2,0.2,4.6-0.3,9.8-1.1c10.1-1.7,25.2-1.4,32.3,0.6C247.6,332.6,249.6,332.8,249.9,332.4z"/>
	<path class="st1" d="M78.7,176.8c5.3-9.3,13.5-20.3,21.5-29.2l6.7-7.3l-1.8-7.1c-2.4-8.8-2.5-24.7-0.4-34.9
		c2.2-10.1,7.6-25.9,12.1-35.1c4.3-8.9,4.8-8.9,9.6,0.7c6.3,12.3,7,19.7,3.9,38.5c-1.1,6.4-2.2,13.5-2.5,15.9l-0.6,4.2l7.8-5.8
		c4.2-3.1,11.9-8.4,17-11.6c10.8-6.8,10.5-4.6,4.1-23.9c-7.3-21.8-15.2-37.8-28.2-57c-4.4-6.4-8.3-11.7-8.6-11.7
		c-0.3,0-3.7,4.5-7.6,10c-7.8,11.1-18.6,31.1-22.1,41c-1.2,3.6-3.1,9-4.2,12c-3.3,9.1-9.3,35.7-10.9,48.5
		c-1.7,13.3-2.1,53.6-0.6,57.3C74.7,183.3,75.1,183,78.7,176.8z"/>
	<path class="st1" d="M302.1,104.8c10.1,6.4,22.2,15.2,23.3,16.9c1.5,2.4,0.7-8.3-1.3-18.4c-1.6-7.9-2-12.6-1.7-19.7
		c0.5-8.7,0.9-10.1,5.2-18.8c2.6-5.2,5.1-9.4,5.5-9.4c1.4,0,10,19.7,13.8,31.7c3.5,11.4,3.7,12.3,3.7,27.3
		c0.1,12.8-0.2,16.3-1.7,20.3l-1.9,4.7l7.2,8.2c10.8,12.1,18.8,23.5,24.6,34.7c1.1,2.1,1.3,1.7,1.9-4.4c1.4-13-0.1-51.9-2.5-65.5
		C372,77.3,358.1,43.2,339.7,18c-2.2-3-4.2-5.5-4.5-5.4c-0.8,0.1-6.7,8.3-13.8,18.9c-10.1,15.4-18.2,32.9-23.7,51.5
		C292.4,101,291.9,98.5,302.1,104.8z"/>
	<path class="st1" d="M111.8,448c-26.9-27.4-43.1-56-50.3-88.5c-2.5-11.3-2.5-12.5-3-63.8c-0.4-35.2-0.2-55.8,0.6-63.1l1.1-10.8
		l-2.9-6.4c-1.5-3.5-4-10-5.4-14.4s-2.7-8.9-3-10c-0.5-2.7-6.2,15.5-8.8,27.9c-2.9,14.5-3.5,30.7-2.8,85.1
		c0.5,46.1,0.7,49.6,2.8,59.4c8,36.4,27,70.9,55.8,101.1c24.2,25.4,65.1,53.3,123.1,83.7l8.4,4.4l13.6-7.2
		c64.8-34,105.7-64.2,132.4-97.7c23.7-29.7,38.7-63.8,42.7-96.7c1.4-11.5,1.4-105.8,0.1-117.8c-1.6-13.5-9-42.7-10.8-42.7
		c-0.4,0-1.4,3.1-2.3,6.8s-3.1,10.4-4.9,14.8l-3.1,7.9l-0.3,66.5c-0.2,58.8-0.4,67.3-1.9,73.5c-13.8,56.1-50.1,98.6-120.4,141.2
		c-15.7,9.5-35.3,20.5-35.3,19.8c0-1,3.4-9.5,6.1-15.2c1.7-3.7,5.3-11.6,7.9-17.5c2.7-5.8,5.5-12.1,6.4-14
		c2.6-5.5,12.6-31.1,12.3-31.4c-0.1-0.2-6.7,3.7-14.5,8.6c-7.9,5-17.4,10.8-21.2,13l-7,4.1l-4.7-2.6c-2.7-1.3-9.1-5.1-14.3-8.4
		s-12-7.5-15-9.4c-3-1.8-6.7-4.1-8.1-5l-2.4-0.9l25,57c5.3,11.7,9.6,21.5,9.3,21.7c-0.2,0.2-3.6-1.5-7.5-3.8c-4-2.3-10-5.8-13.5-7.7
		c-27-15.2-51-31.4-67.4-45.6"/>
	<path class="st1" d="M131.9,201.8c-6.7,9.6-12.2,20.1-10,19.2c7.7-3.1,21.6-5.5,31.4-5.6c16.3-0.1,23.5,2.6,31.8,11.6
		c4.1,4.5,14.1,23.5,14.1,26.9c0,5.3,3.9,0.1,8.2-10.9c3.2-8.2,3.2-23.2,0-32c-4.6-12.5-14.7-23.3-25.9-27.5
		C163.3,176.7,144.7,183.5,131.9,201.8z"/>
	<path class="st1" d="M248.2,208c-3.8,9.2-5.1,21.1-3.1,29.2c1.4,5.3,7.3,19.3,8.2,19.3c0.3,0,2-3.7,3.9-8.3
		c10.9-26.8,23.6-35,50.7-32.5c5.1,0.4,12.8,1.9,17,3.3c4.2,1.3,7.9,2.2,8.2,2c1.1-1.1-10-19.4-15.4-25.4
		c-4.3-4.8-12.9-10.6-18.4-12.6c-5.5-1.9-14.7-2.6-20.1-1.5C266.2,184.2,253.7,195,248.2,208z"/>
	<path class="st1" d="M193.6,88.3c0.6,1.4,2.1,2.2,3.6,2l2.5-0.3c20.6-2.6,39.9-2.6,54.8,0.3c5.4,1,4.8,1.5,9.5-8.9
		c5.2-11.6,5.6-10.5-4.5-12.4c-4.8-0.9-12.6-1.9-17.3-2.2c-4.7-0.2-10.5-0.6-13-0.7c-7-0.5-23.2,0.9-33.3,2.8
		c-5.1,1-9.4,1.9-9.6,2.1c-0.2,0.2,1.6,4.7,4,10L193.6,88.3z"/>
</g>
<path class="st2" d="M201.4,495.6l5.7,13c0,0-111.7-63.5-106.5-92.8l48.5,24.6C170.2,453.3,185.8,466.6,201.4,495.6z"/>
<path class="st2" d="M252.3,497.3l-5.7,13c0,0,110.8-63.5,105.6-92.8l-48.1,24.6C283.2,455.1,267.7,468.4,252.3,497.3z"/>
<circle class="st2" cx="227.4" cy="533.3" r="10.8"/>
</svg>
